<svg xmlns="http://www.w3.org/2000/svg" xmlns:xlink="http://www.w3.org/1999/xlink" width="256" zoomAndPan="magnify" viewBox="0 0 192 52.499999" height="70" preserveAspectRatio="xMidYMid meet" version="1.0"><defs><g><g id="id1"/></g><clipPath id="id2"><path d="M 4 3.585938 L 33.890625 3.585938 L 33.890625 45 L 4 45 Z M 4 3.585938 " clip-rule="nonzero"/></clipPath></defs><g clip-path="url(#id2)"><path fill="rgb(16.859436%, 19.999695%, 17.248535%)" d="M 33.84375 28.621094 C 33.828125 28.289062 33.75 27.976562 33.609375 27.679688 C 33.464844 27.382812 33.273438 27.121094 33.027344 26.902344 C 32.78125 26.683594 32.5 26.515625 32.191406 26.40625 C 31.878906 26.296875 31.558594 26.253906 31.226562 26.273438 C 30.898438 26.289062 30.582031 26.371094 30.285156 26.515625 C 29.988281 26.660156 29.730469 26.855469 29.511719 27.101562 C 29.292969 27.347656 29.128906 27.628906 29.019531 27.9375 C 28.914062 28.25 28.871094 28.570312 28.890625 28.898438 C 28.902344 29.082031 28.90625 29.261719 28.90625 29.445312 C 28.90625 29.828125 28.886719 30.203125 28.839844 30.582031 C 28.796875 30.957031 28.730469 31.332031 28.640625 31.703125 C 28.550781 32.070312 28.441406 32.433594 28.308594 32.789062 C 28.179688 33.144531 28.027344 33.492188 27.851562 33.832031 C 27.679688 34.167969 27.488281 34.496094 27.277344 34.8125 C 27.0625 35.128906 26.835938 35.429688 26.585938 35.71875 C 26.339844 36.007812 26.074219 36.28125 25.796875 36.535156 C 25.515625 36.792969 25.222656 37.035156 24.914062 37.257812 C 24.605469 37.480469 24.285156 37.683594 23.953125 37.871094 C 23.621094 38.054688 23.277344 38.21875 22.925781 38.363281 C 22.574219 38.507812 22.214844 38.632812 21.847656 38.734375 C 21.480469 38.835938 21.109375 38.917969 20.734375 38.976562 C 20.355469 39.035156 19.980469 39.070312 19.597656 39.085938 C 19.21875 39.101562 18.835938 39.089844 18.457031 39.0625 C 18.078125 39.03125 17.703125 38.976562 17.328125 38.902344 C 16.957031 38.828125 16.589844 38.730469 16.226562 38.613281 C 15.863281 38.492188 15.511719 38.355469 15.164062 38.195312 C 14.820312 38.035156 14.484375 37.855469 14.160156 37.65625 C 13.835938 37.457031 13.527344 37.238281 13.226562 37.003906 C 12.929688 36.765625 12.644531 36.515625 12.378906 36.246094 C 12.109375 35.976562 11.859375 35.691406 11.625 35.390625 C 11.390625 35.09375 11.171875 34.78125 10.976562 34.457031 C 10.777344 34.132812 10.601562 33.796875 10.441406 33.449219 C 10.285156 33.105469 10.148438 32.753906 10.03125 32.390625 C 9.914062 32.027344 9.820312 31.660156 9.75 31.289062 C 9.675781 30.917969 9.625 30.539062 9.597656 30.160156 C 9.570312 29.785156 9.5625 29.40625 9.582031 29.023438 C 9.597656 28.644531 9.636719 28.269531 9.699219 27.894531 C 9.761719 27.519531 9.84375 27.148438 9.949219 26.785156 C 10.054688 26.421875 10.183594 26.0625 10.328125 25.714844 C 10.476562 25.363281 10.644531 25.023438 10.832031 24.691406 C 11.023438 24.363281 11.230469 24.046875 11.453125 23.738281 C 11.679688 23.433594 11.921875 23.140625 12.183594 22.863281 C 12.445312 22.589844 12.71875 22.328125 13.011719 22.082031 C 13.300781 21.839844 13.605469 21.613281 13.925781 21.402344 C 14.242188 21.195312 14.574219 21.003906 14.914062 20.835938 C 15.253906 20.664062 15.601562 20.515625 15.960938 20.386719 C 16.320312 20.257812 16.683594 20.152344 17.054688 20.066406 C 17.425781 19.980469 17.800781 19.914062 18.179688 19.875 C 18.558594 19.832031 18.9375 19.8125 19.316406 19.816406 C 19.699219 19.820312 20.078125 19.84375 20.457031 19.890625 C 20.832031 19.941406 21.207031 20.011719 21.578125 20.101562 C 21.945312 20.195312 22.308594 20.308594 22.664062 20.441406 C 23.019531 20.574219 23.367188 20.730469 23.707031 20.90625 C 24.042969 21.082031 24.371094 21.277344 24.683594 21.488281 C 25 21.703125 25.300781 21.9375 25.585938 22.183594 C 25.875 22.433594 26.144531 22.699219 26.402344 22.980469 C 26.65625 23.261719 26.894531 23.558594 27.117188 23.867188 C 27.308594 24.132812 27.542969 24.355469 27.820312 24.527344 C 28.101562 24.703125 28.402344 24.816406 28.726562 24.871094 C 29.050781 24.925781 29.371094 24.914062 29.691406 24.84375 C 30.011719 24.769531 30.308594 24.636719 30.574219 24.449219 C 30.84375 24.257812 31.066406 24.023438 31.238281 23.746094 C 31.414062 23.46875 31.527344 23.167969 31.582031 22.84375 C 31.636719 22.519531 31.628906 22.199219 31.554688 21.878906 C 31.480469 21.558594 31.351562 21.265625 31.160156 21 C 30.109375 19.53125 28.832031 18.300781 27.328125 17.304688 C 25.820312 16.308594 24.183594 15.613281 22.421875 15.21875 L 26.453125 7.0625 C 26.582031 6.800781 26.65625 6.523438 26.675781 6.234375 C 26.695312 5.941406 26.65625 5.660156 26.5625 5.382812 C 26.46875 5.105469 26.328125 4.859375 26.132812 4.640625 C 25.941406 4.421875 25.714844 4.246094 25.449219 4.117188 C 25.1875 3.988281 24.910156 3.914062 24.621094 3.894531 C 24.328125 3.875 24.042969 3.914062 23.765625 4.007812 C 23.488281 4.101562 23.242188 4.242188 23.019531 4.433594 C 22.800781 4.628906 22.625 4.855469 22.496094 5.117188 L 16.714844 15.089844 L 16.625 15.105469 L 18.605469 7.394531 C 18.699219 7.109375 18.734375 6.820312 18.707031 6.523438 C 18.683594 6.226562 18.601562 5.945312 18.464844 5.679688 C 18.324219 5.417969 18.136719 5.191406 17.90625 5 C 17.675781 4.8125 17.414062 4.675781 17.128906 4.59375 C 16.839844 4.507812 16.546875 4.484375 16.25 4.519531 C 15.953125 4.554688 15.675781 4.644531 15.414062 4.792969 C 15.15625 4.941406 14.933594 5.136719 14.753906 5.375 C 14.574219 5.609375 14.445312 5.875 14.371094 6.164062 L 10.691406 17.378906 L 10.691406 9.734375 C 10.710938 9.4375 10.667969 9.152344 10.566406 8.871094 C 10.464844 8.59375 10.316406 8.347656 10.113281 8.128906 C 9.914062 7.910156 9.679688 7.738281 9.410156 7.617188 C 9.136719 7.492188 8.855469 7.425781 8.558594 7.417969 C 8.261719 7.410156 7.976562 7.457031 7.699219 7.5625 C 7.421875 7.671875 7.175781 7.824219 6.960938 8.03125 C 6.746094 8.238281 6.582031 8.476562 6.464844 8.746094 C 6.347656 9.019531 6.289062 9.304688 6.285156 9.597656 L 5.855469 23.566406 C 5.636719 24.058594 5.445312 24.566406 5.28125 25.082031 C 5.121094 25.597656 4.988281 26.121094 4.882812 26.652344 C 4.777344 27.183594 4.703125 27.71875 4.660156 28.257812 C 4.617188 28.796875 4.601562 29.335938 4.617188 29.875 C 4.632812 30.417969 4.679688 30.957031 4.753906 31.492188 C 4.832031 32.027344 4.9375 32.554688 5.070312 33.082031 C 5.207031 33.605469 5.371094 34.117188 5.5625 34.625 C 5.753906 35.128906 5.976562 35.625 6.222656 36.105469 C 6.472656 36.585938 6.746094 37.050781 7.042969 37.503906 C 7.34375 37.953125 7.667969 38.386719 8.015625 38.800781 C 8.363281 39.21875 8.734375 39.613281 9.125 39.984375 C 9.519531 40.359375 9.929688 40.710938 10.359375 41.039062 C 10.792969 41.367188 11.238281 41.671875 11.707031 41.949219 C 12.171875 42.226562 12.648438 42.480469 13.144531 42.707031 C 13.636719 42.929688 14.140625 43.128906 14.65625 43.296875 C 15.171875 43.46875 15.695312 43.609375 16.222656 43.71875 C 16.753906 43.832031 17.289062 43.914062 17.832031 43.964844 C 18.371094 44.015625 18.910156 44.039062 19.453125 44.03125 C 19.996094 44.023438 20.539062 43.984375 21.074219 43.917969 C 21.613281 43.851562 22.148438 43.753906 22.675781 43.625 C 23.203125 43.5 23.71875 43.34375 24.230469 43.160156 C 24.738281 42.972656 25.238281 42.761719 25.722656 42.523438 C 26.210938 42.28125 26.683594 42.015625 27.140625 41.722656 C 27.59375 41.433594 28.035156 41.117188 28.457031 40.773438 C 28.878906 40.433594 29.277344 40.070312 29.660156 39.683594 C 30.039062 39.300781 30.398438 38.894531 30.734375 38.46875 C 31.070312 38.042969 31.378906 37.601562 31.667969 37.140625 C 31.953125 36.683594 32.210938 36.207031 32.445312 35.71875 C 32.679688 35.230469 32.882812 34.730469 33.0625 34.222656 C 33.238281 33.710938 33.386719 33.191406 33.507812 32.664062 C 33.628906 32.136719 33.71875 31.601562 33.777344 31.066406 C 33.835938 30.527344 33.867188 29.988281 33.867188 29.445312 C 33.867188 29.167969 33.863281 28.894531 33.84375 28.621094 Z M 33.84375 28.621094 " fill-opacity="1" fill-rule="nonzero"/></g><path fill="rgb(33.329773%, 29.40979%, 69.799805%)" d="M 19.238281 20.605469 C 18.59375 20.605469 17.953125 20.675781 17.324219 20.816406 L 18.476562 22.695312 L 16.199219 34.542969 L 19.238281 37.289062 L 22.28125 34.542969 L 20 22.695312 L 21.15625 20.816406 C 20.523438 20.675781 19.882812 20.605469 19.238281 20.605469 Z M 19.238281 20.605469 " fill-opacity="1" fill-rule="nonzero"/><g fill="rgb(16.859436%, 19.999695%, 17.248535%)" fill-opacity="1"><g transform="translate(40.879282, 39.849622)"><g><path d="M 0.671875 7.21875 C -0.453125 7.21875 -1.523438 7.109375 -2.546875 6.890625 L -2.546875 2.0625 C -2.210938 2.125 -1.851562 2.191406 -1.46875 2.265625 C -1.09375 2.347656 -0.6875 2.390625 -0.25 2.390625 C 0.78125 2.390625 1.515625 2.078125 1.953125 1.453125 C 2.390625 0.835938 2.609375 -0.21875 2.609375 -1.71875 L 2.609375 -23 L 8.859375 -23 L 8.859375 -2.25 C 8.859375 0.863281 8.175781 3.21875 6.8125 4.8125 C 5.445312 6.414062 3.398438 7.21875 0.671875 7.21875 Z M 0.671875 7.21875 "/></g></g></g><g fill="rgb(16.859436%, 19.999695%, 17.248535%)" fill-opacity="1"><g transform="translate(52.223105, 39.849622)"><g><path d="M 19.140625 -8.953125 C 19.140625 -6.035156 18.351562 -3.757812 16.78125 -2.125 C 15.21875 -0.5 13.023438 0.3125 10.203125 0.3125 C 7.503906 0.3125 5.351562 -0.519531 3.75 -2.1875 C 2.15625 -3.851562 1.359375 -6.109375 1.359375 -8.953125 C 1.359375 -11.859375 2.140625 -14.113281 3.703125 -15.71875 C 5.273438 -17.332031 7.472656 -18.140625 10.296875 -18.140625 C 12.054688 -18.140625 13.601562 -17.765625 14.9375 -17.015625 C 16.28125 -16.273438 17.316406 -15.207031 18.046875 -13.8125 C 18.773438 -12.425781 19.140625 -10.804688 19.140625 -8.953125 Z M 7.59375 -8.953125 C 7.59375 -7.421875 7.796875 -6.253906 8.203125 -5.453125 C 8.617188 -4.648438 9.304688 -4.25 10.265625 -4.25 C 11.222656 -4.25 11.898438 -4.648438 12.296875 -5.453125 C 12.691406 -6.253906 12.890625 -7.421875 12.890625 -8.953125 C 12.890625 -10.472656 12.6875 -11.617188 12.28125 -12.390625 C 11.882812 -13.171875 11.203125 -13.5625 10.234375 -13.5625 C 9.296875 -13.5625 8.617188 -13.175781 8.203125 -12.40625 C 7.796875 -11.632812 7.59375 -10.484375 7.59375 -8.953125 Z M 7.59375 -8.953125 "/></g></g></g><g fill="rgb(16.859436%, 19.999695%, 17.248535%)" fill-opacity="1"><g transform="translate(72.755269, 39.849622)"><g><path d="M 13.015625 -18.140625 C 14.953125 -18.140625 16.488281 -17.328125 17.625 -15.703125 C 18.757812 -14.078125 19.328125 -11.828125 19.328125 -8.953125 C 19.328125 -6.054688 18.753906 -3.785156 17.609375 -2.140625 C 16.460938 -0.503906 14.867188 0.3125 12.828125 0.3125 C 12.160156 0.3125 11.566406 0.238281 11.046875 0.09375 C 10.535156 -0.0390625 10.078125 -0.234375 9.671875 -0.484375 C 9.273438 -0.734375 8.8125 -1.15625 8.28125 -1.75 L 7.890625 -1.75 L 6.921875 0 L 2.125 0 L 2.125 -24.484375 L 8.28125 -24.484375 L 8.28125 -18.9375 C 8.28125 -18.28125 8.207031 -17.144531 8.0625 -15.53125 L 8.28125 -15.53125 C 8.875 -16.445312 9.5625 -17.109375 10.34375 -17.515625 C 11.125 -17.929688 12.015625 -18.140625 13.015625 -18.140625 Z M 10.765625 -13.3125 C 9.898438 -13.3125 9.269531 -13.007812 8.875 -12.40625 C 8.476562 -11.8125 8.28125 -10.875 8.28125 -9.59375 L 8.28125 -8.734375 C 8.28125 -7.273438 8.476562 -6.226562 8.875 -5.59375 C 9.269531 -4.957031 9.921875 -4.640625 10.828125 -4.640625 C 11.546875 -4.640625 12.097656 -5.007812 12.484375 -5.75 C 12.878906 -6.488281 13.078125 -7.578125 13.078125 -9.015625 C 13.078125 -11.878906 12.304688 -13.3125 10.765625 -13.3125 Z M 10.765625 -13.3125 "/></g></g></g><g fill="rgb(16.859436%, 19.999695%, 17.248535%)" fill-opacity="1"><g transform="translate(93.476233, 39.849622)"><g><path d="M 12.625 0 L 6.421875 0 L 6.421875 -17.921875 L 0.796875 -17.921875 L 0.796875 -23 L 18.234375 -23 L 18.234375 -17.921875 L 12.625 -17.921875 Z M 12.625 0 "/></g></g></g><g fill="rgb(16.859436%, 19.999695%, 17.248535%)" fill-opacity="1"><g transform="translate(112.513718, 39.849622)"><g><path d="M 12.890625 -18.140625 C 13.421875 -18.140625 13.925781 -18.097656 14.40625 -18.015625 L 14.75 -17.953125 L 14.203125 -12.140625 C 13.703125 -12.265625 13.003906 -12.328125 12.109375 -12.328125 C 10.765625 -12.328125 9.789062 -12.019531 9.1875 -11.40625 C 8.582031 -10.800781 8.28125 -9.921875 8.28125 -8.765625 L 8.28125 0 L 2.125 0 L 2.125 -17.828125 L 6.703125 -17.828125 L 7.65625 -14.984375 L 7.953125 -14.984375 C 8.472656 -15.921875 9.191406 -16.679688 10.109375 -17.265625 C 11.023438 -17.847656 11.953125 -18.140625 12.890625 -18.140625 Z M 12.890625 -18.140625 "/></g></g></g><g fill="rgb(16.859436%, 19.999695%, 17.248535%)" fill-opacity="1"><g transform="translate(127.633571, 39.849622)"><g><path d="M 13.75 0 L 12.5625 -2.359375 L 12.4375 -2.359375 C 11.613281 -1.328125 10.769531 -0.625 9.90625 -0.25 C 9.050781 0.125 7.941406 0.3125 6.578125 0.3125 C 4.898438 0.3125 3.578125 -0.1875 2.609375 -1.1875 C 1.648438 -2.195312 1.171875 -3.613281 1.171875 -5.4375 C 1.171875 -7.34375 1.828125 -8.757812 3.140625 -9.6875 C 4.460938 -10.613281 6.378906 -11.132812 8.890625 -11.25 L 11.859375 -11.34375 L 11.859375 -11.59375 C 11.859375 -13.0625 11.132812 -13.796875 9.6875 -13.796875 C 8.382812 -13.796875 6.734375 -13.351562 4.734375 -12.46875 L 2.953125 -16.53125 C 5.035156 -17.601562 7.660156 -18.140625 10.828125 -18.140625 C 13.109375 -18.140625 14.875 -17.570312 16.125 -16.4375 C 17.382812 -15.300781 18.015625 -13.71875 18.015625 -11.6875 L 18.015625 0 Z M 9.1875 -4.03125 C 9.925781 -4.03125 10.5625 -4.265625 11.09375 -4.734375 C 11.625 -5.203125 11.890625 -5.816406 11.890625 -6.578125 L 11.890625 -7.953125 L 10.484375 -7.890625 C 8.453125 -7.816406 7.4375 -7.070312 7.4375 -5.65625 C 7.4375 -4.570312 8.019531 -4.03125 9.1875 -4.03125 Z M 9.1875 -4.03125 "/></g></g></g><g fill="rgb(16.859436%, 19.999695%, 17.248535%)" fill-opacity="1"><g transform="translate(147.709464, 39.849622)"><g><path d="M 10.234375 0.3125 C 7.328125 0.3125 5.117188 -0.472656 3.609375 -2.046875 C 2.109375 -3.617188 1.359375 -5.878906 1.359375 -8.828125 C 1.359375 -11.785156 2.171875 -14.078125 3.796875 -15.703125 C 5.421875 -17.328125 7.734375 -18.140625 10.734375 -18.140625 C 12.796875 -18.140625 14.738281 -17.6875 16.5625 -16.78125 L 14.75 -12.234375 C 14.007812 -12.566406 13.320312 -12.828125 12.6875 -13.015625 C 12.0625 -13.210938 11.410156 -13.3125 10.734375 -13.3125 C 9.734375 -13.3125 8.957031 -12.921875 8.40625 -12.140625 C 7.863281 -11.367188 7.59375 -10.273438 7.59375 -8.859375 C 7.59375 -6.003906 8.648438 -4.578125 10.765625 -4.578125 C 12.566406 -4.578125 14.296875 -5.101562 15.953125 -6.15625 L 15.953125 -1.265625 C 14.367188 -0.210938 12.460938 0.3125 10.234375 0.3125 Z M 10.234375 0.3125 "/></g></g></g><g fill="rgb(16.859436%, 19.999695%, 17.248535%)" fill-opacity="1"><g transform="translate(165.079202, 39.849622)"><g><path d="M 8.09375 -10.015625 C 8.832031 -11.203125 9.460938 -12.128906 9.984375 -12.796875 L 13.984375 -17.828125 L 20.84375 -17.828125 L 14.65625 -10.234375 L 21.234375 0 L 14.203125 0 L 10.296875 -6.390625 L 8.3125 -4.859375 L 8.3125 0 L 2.125 0 L 2.125 -24.484375 L 8.3125 -24.484375 L 8.3125 -14.84375 C 8.3125 -13.195312 8.191406 -11.585938 7.953125 -10.015625 Z M 8.09375 -10.015625 "/></g></g></g></svg>